<svg id="Capa_1" enable-background="new 0 0 512 512" height="512" viewBox="0 0 512 512" width="512" xmlns="http://www.w3.org/2000/svg" xmlns:xlink="http://www.w3.org/1999/xlink"><linearGradient id="SVGID_1_" gradientUnits="userSpaceOnUse" x1="256" x2="256" y1="512" y2="0"><stop offset="0" stop-color="#ffedad"/><stop offset="1" stop-color="#ffffe5"/></linearGradient><linearGradient id="SVGID_2_" gradientUnits="userSpaceOnUse" x1="256" x2="256" y1="407" y2="105"><stop offset="0" stop-color="#ffde00"/><stop offset="1" stop-color="#fd5900"/></linearGradient><g><g><circle cx="256" cy="256" fill="url(#SVGID_1_)" r="256"/></g><g id="Energy_1_"><g><g><path d="m405.829 237.134c-.607-4.857-5.014-8.336-9.915-7.711-4.866.607-8.318 5.048-7.711 9.915.685 5.465 1.032 11.016 1.032 16.663 0 73.47-59.765 133.235-133.235 133.235-42.024 0-81.474-20.119-106.471-53.294h17.648c4.91 0 8.882-3.973 8.882-8.883 0-4.909-3.973-8.882-8.882-8.882h-35.53c-4.909 0-8.882 3.973-8.882 8.882v35.53c0 4.91 3.973 8.882 8.882 8.882 4.91 0 8.882-3.973 8.882-8.882v-9.746c28.433 33.777 70.591 54.157 115.471 54.157 83.263 0 151-67.737 151-151 0-6.393-.399-12.69-1.171-18.866zm-282.032 35.529c-.685-5.465-1.032-11.016-1.032-16.663 0-73.47 59.765-133.235 133.235-133.235 42.024 0 81.474 20.119 106.471 53.294h-17.648c-4.91 0-8.882 3.973-8.882 8.883 0 4.909 3.973 8.882 8.882 8.882h35.53c4.909 0 8.882-3.973 8.882-8.882v-35.53c0-4.91-3.973-8.882-8.882-8.882-4.91 0-8.882 3.973-8.882 8.882v9.745c-28.433-33.778-70.591-54.157-115.471-54.157-83.263 0-151 67.736-151 151 0 6.393.399 12.69 1.171 18.866.564 4.493 4.389 7.781 8.804 7.781.364 0 .737-.026 1.11-.069 4.867-.607 8.319-5.049 7.712-9.915zm110.413 88.962c3.72 1.885 8.207.93 10.851-2.229l88.823-106.588c1.952-2.351 2.568-5.542 1.613-8.448-.946-2.906-3.322-5.118-6.289-5.855l-62.437-15.613 15.605-62.445c1.006-4.016-.902-8.197-4.589-10.071-3.704-1.865-8.188-.945-10.851 2.229l-88.823 106.588c-1.952 2.351-2.568 5.543-1.613 8.449.946 2.906 3.322 5.118 6.289 5.855l62.437 15.614-15.605 62.445c-1.005 4.015.903 8.196 4.589 10.069z" fill="url(#SVGID_2_)"/></g></g></g></g></svg>