<svg id="Capa_1" enable-background="new 0 0 512 512" height="512" viewBox="0 0 512 512" width="512" xmlns="http://www.w3.org/2000/svg" xmlns:xlink="http://www.w3.org/1999/xlink"><linearGradient id="SVGID_1_" gradientUnits="userSpaceOnUse" x1="256" x2="256" y1="512" y2="0"><stop offset="0" stop-color="#ffbef9"/><stop offset="1" stop-color="#fff1ff"/></linearGradient><linearGradient id="SVGID_2_" gradientUnits="userSpaceOnUse" x1="256" x2="256" y1="389.5" y2="122.5"><stop offset="0" stop-color="#ff81ff"/><stop offset="1" stop-color="#a93aff"/></linearGradient><g><g><circle cx="256" cy="256" fill="url(#SVGID_1_)" r="256"/></g><g><g><path d="m380.353 193.701h-248.706c-15.278 0-26.647 12.311-26.647 26.7v142.399c0 14.723 11.953 26.7 26.647 26.7h248.706c14.694 0 26.647-11.977 26.647-26.7v-44.5h-53.294c-14.694 0-26.647-11.977-26.647-26.7s11.953-26.7 26.647-26.7h53.294v-44.5c0-14.722-11.953-26.699-26.647-26.699zm-133.235 89h17.765c14.694 0 26.647 11.977 26.647 26.7s-11.953 26.7-26.647 26.7v8.9c0 4.919-3.973 8.9-8.882 8.9s-8.882-3.981-8.882-8.9v-8.9c-14.694 0-26.647-11.977-26.647-26.7 0-4.919 3.973-8.9 8.882-8.9 4.91 0 8.882 3.98 8.882 8.9 0 4.911 3.99 8.9 8.882 8.9h17.765c4.892 0 8.882-3.989 8.882-8.9s-3.99-8.9-8.882-8.9h-17.765c-14.694 0-26.647-11.977-26.647-26.7 0-14.724 11.953-26.7 26.647-26.7v-8.9c0-4.919 3.973-8.9 8.882-8.9s8.882 3.98 8.882 8.9v8.9c14.694 0 26.647 11.977 26.647 26.7 0 4.919-3.973 8.9-8.882 8.9-4.91 0-8.882-3.981-8.882-8.9 0-4.911-3.99-8.9-8.882-8.9h-17.765c-4.892 0-8.882 3.99-8.882 8.9-.001 4.91 3.989 8.9 8.882 8.9zm97.706 8.9c0 4.911 3.99 8.9 8.882 8.9h53.294v-17.8h-53.294c-4.892 0-8.882 3.989-8.882 8.9zm-9.82-164.18c-2.064-4.146-6.974-5.997-11.242-4.285l-131.652 52.765h167.086z" fill="url(#SVGID_2_)"/></g></g></g></svg>