<svg height="437.92039pt" viewBox="0 0 437.92039 437.92039" width="437.92039pt" xmlns="http://www.w3.org/2000/svg"><path d="m437.921875 218.960938h-70.0625c.050781-39.5-15.644531-77.394532-43.609375-105.289063l.101562-.101563.667969-.671874 48.769531-48.769532c41.125 41.023438 64.203126 96.746094 64.132813 154.832032zm0 0" fill="#fedb41"/><path d="m367.960938 218.960938h69.960937c.074219 57.851562-22.824219 113.371093-63.660156 154.347656l-49.542969-49.539063c27.679688-27.855469 43.191406-65.542969 43.140625-104.808593zm0 0" fill="#f4b844"/><path d="m374.261719 373.308594c-41.054688 41.421875-96.980469 64.691406-155.300781 64.613281v-70.070313c39.730468.046876 77.824218-15.828124 105.757812-44.082031zm0 0" fill="#fedb41"/><path d="m373.789062 64.128906-48.769531 48.769532-.667969.671874-.101562.101563c-27.898438-27.964844-65.789062-43.660156-105.289062-43.613281v-70.058594c58.085937-.0703125 113.804687 23.007812 154.828124 64.128906zm0 0" fill="#f4b844"/><path d="m113.679688 324.238281c-50.230469-50.226562-57.984376-128.945312-18.519532-188.011719 39.464844-59.066406 115.160156-82.027343 180.789063-54.839843 65.628906 27.183593 102.917969 96.945312 89.054687 166.617187-13.859375 69.671875-75.007812 119.847656-146.042968 119.847656-39.5.050782-77.386719-15.644531-105.28125-43.613281zm168.539062-105.277343-63.257812-94.691407-63.269532 94.691407 63.269532 94.699218zm0 0" fill="#00efd1"/><path d="m218.960938 124.269531 63.257812 94.691407-63.257812 94.699218-63.269532-94.699218zm0 0" fill="#00acea"/><path d="m218.960938 367.960938v69.960937c-58.085938.070313-113.808594-23.007813-154.832032-64.132813l49.550782-49.550781c27.894531 27.96875 65.78125 43.664063 105.28125 43.613281zm0 0" fill="#f4b844"/><path d="m218.960938 69.960938v.097656c-39.269532-.046875-76.957032 15.464844-104.8125 43.140625l-.296876-.300781-49.242187-49.238282c40.980469-40.839844 96.496094-63.7343748 154.351563-63.660156zm0 0" fill="#fedb41"/><path d="m114.148438 113.199219c-28.25 27.9375-44.125 66.03125-44.078126 105.761719h-70.070312c-.078125-58.320313 23.1875-114.246094 64.609375-155.300782l49.242187 49.238282zm0 0" fill="#f4b844"/><path d="m113.679688 324.238281-49.550782 49.550781c-41.121094-41.023437-64.1992185-96.742187-64.128906-154.828124h70.070312c-.050781 39.496093 15.644532 77.386718 43.609376 105.277343zm0 0" fill="#fedb41"/></svg>