<svg id="Layer_1" enable-background="new 0 0 512 512" height="512" viewBox="0 0 512 512" width="512" xmlns="http://www.w3.org/2000/svg"><g><g id="XMLID_391_"><g id="XMLID_392_"><g id="XMLID_393_"><g id="XMLID_394_"><g id="XMLID_395_"><g id="XMLID_396_"><g id="XMLID_397_"><g id="XMLID_398_"><g id="XMLID_399_"><g id="XMLID_400_"><g id="XMLID_401_"><g id="XMLID_402_"><g id="XMLID_403_"><g id="XMLID_404_"><circle id="XMLID_405_" cx="256" cy="256" fill="#ff1a56" r="256"/></g></g></g></g></g></g></g></g></g></g></g></g></g></g><path d="m511.387 273.587-155.097-155.097-44.873 142.427-182.518-180.584-37.854 328.428 92.959 92.958c22.84 6.682 46.996 10.281 71.996 10.281 135.472 0 246.349-105.234 255.387-238.413z" fill="#d60359"/><path d="m167.167 179.333h49.377v197.667h-49.377z" fill="#40dbff"/><path d="m191.855 179.333h24.688v197.667h-24.688z" fill="#1eb4f7"/><path d="m216.544 243.92h49.377v133.08h-49.377z" fill="#ffed94"/><path d="m241.23 243.92h24.69v133.08h-24.69z" fill="#fcda4f"/><path d="m306.913 118.49h49.377v258.51h-49.377z" fill="#40dbff"/><path d="m331.601 118.49h24.688v258.51h-24.688z" fill="#1eb4f7"/><path d="m356.29 295.578h49.377v81.422h-49.377z" fill="#ffed94"/><path d="m380.978 295.578h24.689v81.422h-24.689z" fill="#fcda4f"/><path d="m128.899 370.907v-290.574h-37.854v328.428h339.688v-37.854z" fill="#f2f2f2"/><path d="m241.232 370.91h200.768v37.85h-200.768z" fill="#d8d8d8"/></g></svg>