<svg height="512pt" viewBox="0 0 512 512" width="512pt" xmlns="http://www.w3.org/2000/svg" xmlns:xlink="http://www.w3.org/1999/xlink"><linearGradient id="a" gradientTransform="matrix(1 0 0 -1 0 -17294)" gradientUnits="userSpaceOnUse" x1="0" x2="512" y1="-17550" y2="-17550"><stop offset="0" stop-color="#00f38d"/><stop offset="1" stop-color="#009eff"/></linearGradient><path d="m512 256c0 141.386719-114.613281 256-256 256s-256-114.613281-256-256 114.613281-256 256-256 256 114.613281 256 256zm0 0" fill="url(#a)"/><g fill="#fff"><path d="m256 456c-110.28125 0-200-89.71875-200-200s89.71875-200 200-200 200 89.71875 200 200-89.71875 200-200 200zm0-370c-93.738281 0-170 76.261719-170 170s76.261719 170 170 170 170-76.261719 170-170-76.261719-170-170-170zm0 0"/><path d="m292.554688 154.839844 26.421874 14.203125-101.132812 188.132812-26.425781-14.207031zm0 0"/><path d="m190.9375 247.484375c-25.5625 0-46.355469-20.796875-46.355469-46.355469 0-25.5625 20.796875-46.355468 46.355469-46.355468s46.355469 20.792968 46.355469 46.355468c0 25.558594-20.796875 46.355469-46.355469 46.355469zm0-62.714844c-9.019531 0-16.355469 7.339844-16.355469 16.355469 0 9.019531 7.335938 16.355469 16.355469 16.355469 9.015625 0 16.355469-7.335938 16.355469-16.355469 0-9.015625-7.339844-16.355469-16.355469-16.355469zm0 0"/><path d="m320.277344 357.230469c-25.558594 0-46.351563-20.796875-46.351563-46.355469 0-25.5625 20.792969-46.355469 46.351563-46.355469 25.5625 0 46.359375 20.792969 46.359375 46.355469 0 25.558594-20.796875 46.355469-46.359375 46.355469zm0-62.714844c-9.015625 0-16.351563 7.339844-16.351563 16.355469 0 9.019531 7.335938 16.355468 16.351563 16.355468 9.019531 0 16.359375-7.335937 16.359375-16.355468 0-9.015625-7.339844-16.355469-16.359375-16.355469zm0 0"/></g></svg>