<svg height="512" viewBox="0 0 60 60" width="512" xmlns="http://www.w3.org/2000/svg"><g id="Page-1" fill="none" fill-rule="evenodd"><g id="008---Circular-Box" fill="rgb(0,0,0)" fill-rule="nonzero"><path id="Shape" d="m30 0c-16.5685425 0-30 13.4314575-30 30s13.4314575 30 30 30 30-13.4314575 30-30c-.018737-16.5607751-13.4392249-29.98126296-30-30zm27.921 28h-7.2c.3686855-1.0537546.3767761-2.2001467.023-3.259-1.581-4.741-5.668-7.352-7.344-8.249-.6340592-.3591712-1.3586042-.5269349-2.086-.483-2.2963427.1231493-4.4998569.9467625-6.314 2.36v-15.913c12.5665613 2.30020486 21.9905014 12.8025881 22.921 25.544zm-.575 8h-13.646c-.251-.263-.5-.5-.751-.719 2.6332808-1.1315281 4.9099305-2.956788 6.587-5.281h8.464c-.0010458 2.0177294-.2203209 4.0294276-.654 6zm-36.4 7.184-1.021-2.556c-.0985145-.2462643-.2908294-.4433028-.5346314-.5477625-.2438019-.1044598-.5191165-.1077826-.7653686-.0092375l-3.243 1.3c.6932444-2.252587 2.157077-4.1893774 4.135-5.471.42402.0568318.8511996.0868914 1.279.09 1.1040807-.0074617 2.2004889-.184182 3.251-.524.1279338.8165157.5870508 1.5440842 1.269 2.011-1.9313515 1.4858171-3.4372118 3.4541965-4.366 5.707zm-18.946-13.184h8.45c1.656924 2.348015 3.9453352 4.1783972 6.6 5.279-.248.22-.5.458-.752.721h-13.644c-.4336791-1.9705724-.65295421-3.9822706-.654-6zm26.753-1.978c-.4307056.0226268-.8566256.1012893-1.267.234-.894-2.395-3.093-6.824-7.442-8.049-.5097871-.1471338-1.0593871-.0153362-1.447.347-.382251.3517667-.5522538.8780926-.448 1.387.429 2.116 1.851 7.167 5.951 10.065-.0666271.3271347-.1001296.6601493-.1.994v.353c-6.678 2.545-11.249-3.415-12.517-5.359-.5000372-.7714743-.6194096-1.7294008-.324-2.6 1.344-4.035 4.918-6.328 6.392-7.126.307692-.1718872.6568153-.2556214 1.009-.242 6.94.427 9.454 7.226 10.193 9.996zm12.701-10.022c.3475106-.0151759.6920976.0694961.993.244 2.9336129 1.5074746 5.2094026 4.0424189 6.393 7.121.2992407.8749999.17822 1.8391065-.328 2.613-.782 1.2-3.663 5.181-7.952 5.9-1.5402745.2401944-3.1168945.0555639-4.56-.534v-.344c-.0001254-.3328454-.0336264-.6648395-.1-.991 4.1-2.9 5.523-7.949 5.952-10.067.1035156-.5094446-.0676561-1.0358637-.451-1.387-.386684-.3618406-.935513-.4929667-1.444-.345-4.349 1.225-6.548 5.654-7.442 8.05-.4073025-.1326521-.8302411-.2113227-1.258-.234.061-.221.133-.464.218-.727 1.038-3.306 3.713-8.906 9.979-9.299zm-7.173 11.25c.6-1.679 2.248-5.447 5.408-6.832-.673993 2.9928546-2.2931176 5.6894088-4.618 7.691-.2293418-.3146254-.4944515-.601548-.79-.855zm-9.351.859c-2.324443-2.0019615-3.9434736-4.6983592-4.618-7.691 3.159 1.384 4.81 5.152 5.408 6.831-.2960402.2562947-.561166.5462551-.79.864zm2.07 5.891c-.5522847 0-1-.4477153-1-1v-2c0-1.6568542 1.3431458-3 3-3h2c1.6568542 0 3 1.3431458 3 3v2c0 .5522847-.4477153 1-1 1zm7.684 1.48c.6833378-.4682902 1.142623-1.1982968 1.269-2.017 1.0657947.3483036 2.1787823.5307661 3.3.541.4162594-.0027643.8318625-.0335002 1.244-.092 1.969875 1.2816521 3.4275575 3.2139041 4.119 5.46l-3.243-1.3c-.2462521-.0985451-.5215667-.0952223-.7653686.0092375-.243802.1044597-.4361169.3014982-.5346314.5477625l-1.023 2.555c-.9287882-2.2528035-2.4346485-4.2211829-4.366-5.707zm-1.684-35.317v18.118c-1.2830932 1.5550526-2.2992298 3.3122558-3.007 5.2-.7088123-1.8784927-1.7197979-3.6285483-2.993-5.181v-18.137c1.9940958-.21733224 4.0059042-.21733224 6 0zm-8 .293v15.917c-1.8159771-1.409353-4.0194969-2.2296974-6.315-2.351-.7265857-.0387595-1.449429.1275707-2.086.48-1.683.912-5.768 3.54-7.338 8.253-.3537932 1.0537697-.34746158 2.19522.018 3.245h-7.2c.93049861-12.7414119 10.3544387-23.24379514 22.921-25.544zm-21.829 35.544h11.578c-.9117771 1.4804995-1.5041039 3.1351999-1.739 4.858-.0508817.3535573.0906866.7074081.3713947.9283033.280708.2208952.657926.2752883.9896053.1426967l4.072-1.629 1.628 4.072c.1521275.3795963.520055.6283137.929.628h.067c.4317841-.030361.7950178-.3350738.9-.755.5964294-2.1193807 1.6295485-4.0905842 3.033-5.787v17.086c-10.3677104-1.9014202-18.79742488-9.4487353-21.829-19.544zm23.829 19.837v-19.045c.6536278-.3925212 1.3728772-.6635526 2.123-.8h1.754c.7507784.1384747 1.4701361.4122575 2.123.808v19.037c-1.9940958.2173322-4.0059042.2173322-6 0zm8-.293v-17.077c1.398418 1.6955538 2.4301285 3.6626137 3.03 5.777.1057204.4191382.4687835.7229009.9.753h.066c.408945.0003137.7768725-.2484037.929-.628l1.632-4.069 4.072 1.629c.3316793.1325916.7088973.0781985.9896053-.1426967.2807081-.2208952.4222764-.574746.3713947-.9283033-.2348961-1.7228001-.8272229-3.3775005-1.739-4.858h11.578c-3.0315751 10.0952647-11.4612896 17.6425798-21.829 19.544z"/><path id="Shape" d="m5.3 25.983c.06580071.0135319.13282269.0202341.2.02.47451711-.0008523.88309719-.3350692.978-.8 1.72801001-8.3698924 7.7595745-15.1985883 15.852-17.947.3457504-.10871288.6056141-.39599625.6792154-.75088309.0736013-.35488683-.0505822-.72181919-.3245831-.95906455-.2740008-.23724536-.6549238-.30766269-.9956323-.18405236-8.7642254 2.97693658-15.29620003 10.3730177-17.167 19.438-.05403638.2600757-.00237761.5309643.14357912.7529011.14595673.2219367.37421697.3766833.63442088.4300989z"/><path id="Shape" d="m52.886 40.11c-.4953999-.2441018-1.0948848-.0403934-1.339.455-2.8324112 5.7194936-7.8062718 10.0911154-13.842 12.166-.4652459.1561847-.7483985.6269-.6683627 1.1110918s.4996041.8387489.9903627.8369082c.1098753-.0004508.2189531-.0186867.323-.054 6.5367593-2.2475763 11.9236649-6.9819592 14.992-13.176.1171518-.2380223.1349222-.5128416.0494-.7639693s-.2673275-.4579809-.5054-.5750307z"/><path id="Shape" d="m1.293 10.707c.39049985.3903819 1.02350015.3903819 1.414 0l.293-.293.293.293c.25107447.2599566.62287789.3642126.97250732.2726972.34962944-.0915155.6226744-.3645604.71418984-.7141899.09151544-.34962941-.01274058-.72143283-.27269716-.9725073l-.293-.293.293-.293c.25995658-.25107447.3642126-.62287789.27269716-.97250732-.09151544-.34962944-.3645604-.6226744-.71418984-.71418984-.34962943-.09151544-.72143285.01274058-.97250732.27269716l-.293.293-.293-.293c-.25107447-.25995658-.62287789-.3642126-.97250732-.27269716-.34962944.09151544-.6226744.3645604-.71418984.71418984-.09151544.34962943.01274058.72143285.27269716.97250732l.293.293-.293.293c-.39038194.39049985-.39038194 1.0235001 0 1.414z"/><path id="Shape" d="m5.293 3.707c.39049985.39038194 1.02350015.39038194 1.414 0l.293-.293.293.293c.39237889.37897221 1.01608478.37355237 1.40181858-.01218142.38573379-.3857338.39115363-1.00943969.01218142-1.40181858l-.293-.293.293-.293c.37897221-.39237889.37355237-1.01608478-.01218142-1.40181857-.3857338-.3857338-1.00943969-.39115364-1.40181858-.01218143l-.293.293-.293-.293c-.39237889-.37897221-1.01608478-.37355237-1.40181858.01218143-.38573379.38573379-.39115363 1.00943968-.01218142 1.40181857l.293.293-.293.293c-.39038194.39049985-.39038194 1.02350015 0 1.414z"/><path id="Shape" d="m1.293 53.707c.39049985.3903819 1.02350015.3903819 1.414 0l.293-.293.293.293c.25107447.2599566.62287789.3642126.97250732.2726972.34962944-.0915155.6226744-.3645604.71418984-.7141899.09151544-.3496294-.01274058-.7214328-.27269716-.9725073l-.293-.293.293-.293c.37897221-.3923789.37355237-1.0160848-.01218142-1.4018186-.3857338-.3857338-1.00943969-.3911536-1.40181858-.0121814l-.293.293-.293-.293c-.39237889-.3789722-1.01608478-.3735524-1.40181858.0121814-.38573379.3857338-.39115363 1.0094397-.01218142 1.4018186l.293.293-.293.293c-.39038194.3904999-.39038194 1.0235001 0 1.414z"/><path id="Shape" d="m7.293 59.707c.39049985.3903819 1.02350015.3903819 1.414 0l.293-.293.293.293c.39237889.3789722 1.0160848.3735524 1.4018186-.0121814s.3911536-1.0094397.0121814-1.4018186l-.293-.293.293-.293c.3789722-.3923789.3735524-1.0160848-.0121814-1.4018186s-1.00943971-.3911536-1.4018186-.0121814l-.293.293-.293-.293c-.25107447-.2599566-.62287789-.3642126-.97250732-.2726972-.34962944.0915155-.6226744.3645604-.71418984.7141899-.09151544.3496294.01274058.7214328.27269716.9725073l.293.293-.293.293c-.39038194.3904999-.39038194 1.0235001 0 1.414z"/><path id="Shape" d="m55.293 53.707c.3904999.3903819 1.0235001.3903819 1.414 0l.293-.293.293.293c.3923789.3789722 1.0160848.3735524 1.4018186-.0121814s.3911536-1.0094397.0121814-1.4018186l-.293-.293.293-.293c.3789722-.3923789.3735524-1.0160848-.0121814-1.4018186s-1.0094397-.3911536-1.4018186-.0121814l-.293.293-.293-.293c-.3923789-.3789722-1.0160848-.3735524-1.4018186.0121814s-.3911536 1.0094397-.0121814 1.4018186l.293.293-.293.293c-.3903819.3904999-.3903819 1.0235001 0 1.414z"/><path id="Shape" d="m49.293 59.707c.3904999.3903819 1.0235001.3903819 1.414 0l.293-.293.293.293c.3923789.3789722 1.0160848.3735524 1.4018186-.0121814s.3911536-1.0094397.0121814-1.4018186l-.293-.293.293-.293c.3789722-.3923789.3735524-1.0160848-.0121814-1.4018186s-1.0094397-.3911536-1.4018186-.0121814l-.293.293-.293-.293c-.3923789-.3789722-1.0160848-.3735524-1.4018186.0121814s-.3911536 1.0094397-.0121814 1.4018186l.293.293-.293.293c-.3903819.3904999-.3903819 1.0235001 0 1.414z"/><path id="Shape" d="m55.293 8.707.293.293-.293.293c-.2599566.25107447-.3642126.62287789-.2726972.9725073.0915155.3496295.3645604.6226744.7141899.7141899.3496294.0915154.7214328-.0127406.9725073-.2726972l.293-.293.293.293c.3923789.3789722 1.0160848.3735524 1.4018186-.0121814s.3911536-1.00943971.0121814-1.4018186l-.293-.293.293-.293c.2599566-.25107447.3642126-.62287789.2726972-.97250732-.0915155-.34962944-.3645604-.6226744-.7141899-.71418984-.3496294-.09151544-.7214328.01274058-.9725073.27269716l-.293.293-.293-.293c-.2510745-.25995658-.6228779-.3642126-.9725073-.27269716-.3496295.09151544-.6226744.3645604-.7141899.71418984-.0915154.34962943.0127406.72143285.2726972.97250732z"/><path id="Shape" d="m51.293 3.707c.3904999.39038194 1.0235001.39038194 1.414 0l.293-.293.293.293c.3923789.37897221 1.0160848.37355237 1.4018186-.01218142.3857338-.3857338.3911536-1.00943969.0121814-1.40181858l-.293-.293.293-.293c.3789722-.39237889.3735524-1.01608478-.0121814-1.40181857-.3857338-.3857338-1.0094397-.39115364-1.4018186-.01218143l-.293.293-.293-.293c-.3923789-.37897221-1.0160848-.37355237-1.4018186.01218143-.3857338.38573379-.3911536 1.00943968-.0121814 1.40181857l.293.293-.293.293c-.3903819.39049985-.3903819 1.02350015 0 1.414z"/></g></g></svg>