<svg viewBox="0 0 512 512" xmlns="http://www.w3.org/2000/svg" xmlns:xlink="http://www.w3.org/1999/xlink"><linearGradient id="a" gradientTransform="matrix(1 0 0 -1 0 -15158)" gradientUnits="userSpaceOnUse" x1="0" x2="512" y1="-15414" y2="-15414"><stop offset="0" stop-color="#00f1ff"/><stop offset=".231" stop-color="#00d8ff"/><stop offset=".5138" stop-color="#00c0ff"/><stop offset=".7773" stop-color="#00b2ff"/><stop offset="1" stop-color="#00adff"/></linearGradient><path d="m512 256c0 141.386719-114.613281 256-256 256s-256-114.613281-256-256 114.613281-256 256-256 256 114.613281 256 256zm0 0" fill="url(#a)"/><path d="m437.296875 182.398438-31.546875-73.917969c-9.066406-21.25-29.855469-34.980469-52.960938-34.980469h-193.578124c-23.105469 0-43.894532 13.730469-52.964844 34.980469l-31.542969 73.917969c-.792969 1.859374-1.203125 3.863281-1.203125 5.886718v18.453125c0 19.546875 11.664062 36.410157 28.390625 44.027344v130.148437c0 31.753907 25.832031 57.585938 57.585937 57.585938h193.050782c31.75 0 57.582031-25.832031 57.582031-57.585938 0-8.28125-6.714844-15-15-15-8.28125 0-15 6.71875-15 15 0 15.210938-12.375 27.585938-27.582031 27.585938h-193.050782c-15.210937 0-27.585937-12.375-27.585937-27.585938v-126.871093c8.929687-1.890625 16.953125-6.257813 23.328125-12.34375 1.101562 1.054687 2.253906 2.054687 3.453125 3v91.5c0 8.285156 6.714844 15 15 15h164.660156c8.28125 0 15-6.714844 15-15v-91.5c1.195313-.945313 2.347657-1.945313 3.453125-3 6.371094 6.085937 14.394532 10.453125 23.324219 12.34375v55.898437c0 8.28125 6.71875 15 15 15 8.285156 0 15-6.71875 15-15v-59.175781c16.726563-7.617187 28.390625-24.480469 28.390625-44.027344v-18.453125c0-2.023437-.410156-4.023437-1.203125-5.886718zm-303.457031-62.140626c4.34375-10.179687 14.304687-16.757812 25.371094-16.757812h193.578124c11.066407 0 21.027344 6.578125 25.371094 16.757812l22.449219 52.605469h-289.21875zm54.734375 104.839844c-10.125 0-18.359375-8.234375-18.359375-18.359375v-3.875h36.71875v3.875c0 10.125-8.238282 18.359375-18.359375 18.359375zm48.359375-22.234375h38.132812v3.167969c0 10.511719-8.550781 19.066406-19.066406 19.066406s-19.066406-8.554687-19.066406-19.066406zm68.132812 0h36.71875v3.875c0 10.125-8.234375 18.359375-18.359375 18.359375-10.121093 0-18.359375-8.234375-18.359375-18.359375zm-183.207031 22.234375c-10.125 0-18.359375-8.234375-18.359375-18.359375v-3.875h36.714844v3.875c0 10.125-8.234375 18.359375-18.355469 18.359375zm66.808594 96.101563v-66.105469c12.996093-.023438 24.792969-5.207031 33.476562-13.597656 8.8125 8.417968 20.738281 13.601562 33.855469 13.601562s25.042969-5.183594 33.855469-13.601562c8.683593 8.390625 20.480469 13.574218 33.476562 13.597656v66.105469zm183.117187-114.460938v-3.875h36.714844v3.875c0 10.125-8.234375 18.359375-18.359375 18.359375-10.121094 0-18.355469-8.234375-18.355469-18.359375zm0 0" fill="#fff"/></svg>